Coordinates
version=1
nRows=54
nColumns=12
inDegrees=yes

Units are S.I. units (second, meters, Newtons, ...)
Angles are in degrees

endheader
time	SC_y	SC_z	SC_x	AC_y	AC_z	AC_x	GH_y	GH_z	GH_yy	EL_x	PS_y
       0.0               -27.9          26.73          78.54          32.39          5.609          17.76         -42.65          64.98          144.7          126.6          26.26
   0.03891               -27.9          26.73          78.54          32.39          5.609          17.76         -42.63          64.98          144.6          126.6          26.27
   0.07782               -27.9          26.73          78.53          32.39           5.61          17.75         -42.61          64.98          144.6          126.6          26.29
    0.1167              -27.91          26.73          78.52          32.39           5.61          17.75         -42.59          64.98          144.6          126.6          26.31
    0.1556              -27.91          26.74          78.51          32.39           5.61          17.75         -42.56          64.98          144.6          126.6          26.33
    0.1945              -27.91          26.74          78.49          32.39           5.61          17.74         -42.53          64.97          144.5          126.6          26.35
    0.2335              -27.91          26.74          78.48          32.39           5.61          17.74         -42.51          64.97          144.5          126.6          26.38
    0.2724              -27.91          26.74          78.47          32.39           5.61          17.73         -42.47          64.97          144.4          126.6           26.4
    0.3113              -27.91          26.74          78.46          32.39           5.61          17.73         -42.44          64.97          144.4          126.6          26.43
    0.3502              -27.91          26.75          78.44          32.39           5.61          17.72         -42.41          64.97          144.4          126.6          26.46
    0.3891              -27.91          26.75          78.43          32.39           5.61          17.72         -42.37          64.97          144.3          126.6          26.49
     0.428              -27.91          26.75          78.41          32.39           5.61          17.71         -42.33          64.97          144.3          126.6          26.53
    0.4669              -27.91          26.75          78.39          32.39          5.611          17.71         -42.28          64.96          144.2          126.6          26.56
    0.5058              -27.91          26.76          78.37          32.39          5.611           17.7         -42.24          64.96          144.1          126.6           26.6
    0.5447              -27.92          26.76          78.35          32.39          5.611          17.69         -42.19          64.96          144.1          126.6          26.65
    0.5836              -27.92          26.76          78.33          32.39          5.611          17.68         -42.13          64.96          144.0          126.6          26.69
    0.6225              -27.92          26.77           78.3          32.39          5.611          17.68         -42.07          64.95          143.9          126.6          26.74
    0.6614              -27.92          26.77          78.27          32.39          5.611          17.67          -42.0          64.95          143.9          126.6           26.8
    0.7004              -27.92          26.78          78.24          32.39          5.612          17.66         -41.93          64.95          143.8          126.6          26.86
    0.7393              -27.93          26.78          78.21          32.39          5.612          17.64         -41.85          64.94          143.7          126.6          26.92
    0.7782              -27.93          26.79          78.18          32.38          5.612          17.63         -41.77          64.94          143.6          126.6           27.0
    0.8171              -27.93           26.8          78.14          32.38          5.613          17.62         -41.67          64.93          143.4          126.6          27.08
     0.856              -27.93           26.8          78.09          32.38          5.613           17.6         -41.57          64.93          143.3          126.6          27.16
    0.8949              -27.94          26.81          78.04          32.38          5.613          17.59         -41.45          64.92          143.2          126.6          27.26
    0.9338              -27.94          26.82          77.99          32.38          5.614          17.57         -41.32          64.92          143.0          126.6          27.37
    0.9727              -27.94          26.83          77.93          32.38          5.614          17.55         -41.18          64.91          142.8          126.6          27.49
     1.012              -27.95          26.84          77.86          32.38          5.615          17.52         -41.01           64.9          142.6          126.6          27.63
     1.051              -27.95          26.85          77.79          32.37          5.615           17.5         -40.83           64.9          142.4          126.6          27.78
     1.089              -27.96          26.87           77.7          32.37          5.616          17.47         -40.63          64.89          142.1          126.6          27.95
     1.128              -27.96          26.88           77.6          32.37          5.617          17.44         -40.39          64.88          141.8          126.6          28.15
     1.167              -27.97           26.9          77.49          32.37          5.617           17.4         -40.13          64.86          141.5          126.6          28.37
     1.206              -27.98          26.92          77.37          32.36          5.618          17.35         -39.82          64.85          141.1          126.6          28.63
     1.245              -27.99          26.94          77.22          32.36           5.62           17.3         -39.47          64.83          140.7          126.6          28.92
     1.284               -28.0          26.97          77.05          32.36          5.621          17.25         -39.06          64.81          140.1          126.7          29.26
     1.323              -28.01           27.0          76.85          32.35          5.622          17.18         -38.57          64.79          139.5          126.7          29.67
     1.362              -28.03          27.04          76.61          32.35          5.624           17.1         -38.01          64.77          138.8          126.7          30.14
     1.401              -28.05          27.08          76.33          32.34          5.626           17.0         -37.34          64.73          138.0          126.7           30.7
      1.44              -28.07          27.14           76.0          32.33          5.629          16.89         -36.53           64.7          137.0          126.7          31.38
     1.479               -28.1           27.2          75.59          32.32          5.632          16.75         -35.55          64.65          135.7          126.7          32.19
     1.517              -28.13          27.28          75.09          32.31          5.636          16.58         -34.36           64.6          134.2          126.8          33.19
     1.556              -28.17          27.38          74.48          32.29           5.64          16.37         -32.89          64.53          132.4          126.8          34.42
     1.595              -28.22           27.5          73.72          32.27          5.646          16.11         -31.05          64.44          130.1          126.9          35.96
     1.634              -28.28          27.66          72.76          32.25          5.654          15.78         -28.74          64.34          127.2          126.9          37.89
     1.673              -28.36          27.85          71.53          32.22          5.663          15.36          -25.8           64.2          123.5          127.0          40.35
     1.712              -28.46          28.11          69.97          32.18          5.675          14.83         -22.04          64.03          118.8          127.1          43.49
     1.751              -28.59          28.43          67.96          32.13           5.69          14.14         -17.22           63.8          112.7          127.2          47.53
      1.79              -28.76          28.84          65.39          32.06           5.71          13.26         -11.05          63.52          104.9          127.4          52.69
     1.829              -28.97          29.36          62.17          31.98          5.734          12.16           -3.3          63.16           95.2          127.5          59.17
     1.868              -29.23          29.99          58.24          31.88          5.764          10.81          6.147          62.72          83.32          127.8          67.07
     1.907              -29.53          30.72          53.68          31.77          5.799          9.256           17.1          62.22          69.56          128.1          76.23
     1.945              -29.85          31.51          48.75          31.64          5.837          7.569          28.95          61.67          54.65          128.4          86.15
     1.984              -30.17           32.3          43.81          31.52          5.874          5.882          40.81          61.12          39.75          128.7          96.07
     2.023              -30.47          33.03          39.26          31.41          5.909          4.324          51.76          60.61          25.98          128.9          105.2
     2.062              -30.72          33.66          35.33          31.31          5.939           2.98          61.21          60.18          14.11          129.2          113.1
